HIERARCHY
ROOT Hips
{
  OFFSET 0 0.240689 0
  CHANNELS 6 Xposition Yposition Zposition Zrotation Xrotation Yrotation
  JOINT Bip01_Spine0
  {
    OFFSET 0 -24.7459 49.7988
    CHANNELS 6 Xposition Yposition Zposition Zrotation Xrotation Yrotation
    JOINT Bip01_Pelvis
    {
      OFFSET 0 0 0
      CHANNELS 6 Xposition Yposition Zposition Zrotation Xrotation Yrotation
      JOINT Bip01_Spine0_Tail
      {
        OFFSET -6.47486 -3.86022 0
        CHANNELS 6 Xposition Yposition Zposition Zrotation Xrotation Yrotation
        JOINT Bip01_Spine0_Tail1
        {
          OFFSET 10.3837 -0.00825882 0
          CHANNELS 6 Xposition Yposition Zposition Zrotation Xrotation Yrotation
          JOINT Bip01_Spine0_Tail2
          {
            OFFSET 10.3837 -0.00826263 0
            CHANNELS 6 Xposition Yposition Zposition Zrotation Xrotation Yrotation
            JOINT Bip01_Spine0_Tail3
            {
              OFFSET 10.3837 -0.00825882 0
              CHANNELS 6 Xposition Yposition Zposition Zrotation Xrotation Yrotation
              JOINT Bip01_Spine0_Tail4
              {
                OFFSET 10.3837 -0.00826263 0
                CHANNELS 6 Xposition Yposition Zposition Zrotation Xrotation Yrotation
                End Site
                {
                  OFFSET 0 0 0
                }
              }
            }
          }
        }
      }
      JOINT Bip01_R_Thigh
      {
        OFFSET 0 -1.52588e-005 -8.75617
        CHANNELS 6 Xposition Yposition Zposition Zrotation Xrotation Yrotation
        JOINT Bip01_R_Calf
        {
          OFFSET 19.7638 0 0
          CHANNELS 6 Xposition Yposition Zposition Zrotation Xrotation Yrotation
          JOINT Bip01_R_Foot
          {
            OFFSET 18.6534 0 0
            CHANNELS 6 Xposition Yposition Zposition Zrotation Xrotation Yrotation
            JOINT Bip01_R_Toe0
            {
              OFFSET 5.09145 13.9567 0
              CHANNELS 6 Xposition Yposition Zposition Zrotation Xrotation Yrotation
              JOINT Bip01_R_Toe01
              {
                OFFSET 4.28803 0 0
                CHANNELS 6 Xposition Yposition Zposition Zrotation Xrotation Yrotation
                JOINT Bip01_R_Toe02
                {
                  OFFSET 3.85801 0 0
                  CHANNELS 6 Xposition Yposition Zposition Zrotation Xrotation Yrotation
                  End Site
                  {
                    OFFSET 0 0 0
                  }
                }
              }
            }
          }
        }
      }
      JOINT Bip01_L_Thigh
      {
        OFFSET 0 1.52588e-005 8.75617
        CHANNELS 6 Xposition Yposition Zposition Zrotation Xrotation Yrotation
        JOINT Bip01_L_Calf
        {
          OFFSET 19.7638 0 0
          CHANNELS 6 Xposition Yposition Zposition Zrotation Xrotation Yrotation
          JOINT Bip01_L_Foot
          {
            OFFSET 18.6534 0 0
            CHANNELS 6 Xposition Yposition Zposition Zrotation Xrotation Yrotation
            JOINT Bip01_L_Toe0
            {
              OFFSET 5.09144 13.9567 0
              CHANNELS 6 Xposition Yposition Zposition Zrotation Xrotation Yrotation
              JOINT Bip01_L_Toe01
              {
                OFFSET 4.28802 0 0
                CHANNELS 6 Xposition Yposition Zposition Zrotation Xrotation Yrotation
                JOINT Bip01_L_Toe02
                {
                  OFFSET 3.85801 0 0
                  CHANNELS 6 Xposition Yposition Zposition Zrotation Xrotation Yrotation
                  End Site
                  {
                    OFFSET 0 0 0
                  }
                }
              }
            }
          }
        }
      }
      JOINT Bip01_Spine
      {
        OFFSET 9.14835 -0.00640869 -1.1e-005
        CHANNELS 6 Xposition Yposition Zposition Zrotation Xrotation Yrotation
        JOINT Bip01_Spine1
        {
          OFFSET 8.04366 -0.00638199 0
          CHANNELS 6 Xposition Yposition Zposition Zrotation Xrotation Yrotation
          JOINT Bip01_Spine2
          {
            OFFSET 8.04367 -0.00639343 0
            CHANNELS 6 Xposition Yposition Zposition Zrotation Xrotation Yrotation
            JOINT Bip01_Spine3
            {
              OFFSET 8.04304 -0.00831222 0
              CHANNELS 6 Xposition Yposition Zposition Zrotation Xrotation Yrotation
              JOINT Bip01_Neck
              {
                OFFSET 10.6685 1.06813 0
                CHANNELS 6 Xposition Yposition Zposition Zrotation Xrotation Yrotation
                JOINT Bip01_R_Clavicle
                {
                  OFFSET -3.21661 -4.89635 -9.04802
                  CHANNELS 6 Xposition Yposition Zposition Zrotation Xrotation Yrotation
                  JOINT Bip01_R_UpperArm
                  {
                    OFFSET 19.0492 0 0
                    CHANNELS 6 Xposition Yposition Zposition Zrotation Xrotation Yrotation
                    JOINT Bip01_R_Forearm
                    {
                      OFFSET 10.3706 0 0
                      CHANNELS 6 Xposition Yposition Zposition Zrotation Xrotation Yrotation
                      JOINT Bip01_R_Hand
                      {
                        OFFSET 22.8632 0 0
                        CHANNELS 6 Xposition Yposition Zposition Zrotation Xrotation Yrotation
                        JOINT Bip01_R_Finger0
                        {
                          OFFSET 6.48259 0.103651 0.504496
                          CHANNELS 6 Xposition Yposition Zposition Zrotation Xrotation Yrotation
                          JOINT Bip01_R_Finger01
                          {
                            OFFSET 3.66847 0 0
                            CHANNELS 6 Xposition Yposition Zposition Zrotation Xrotation Yrotation
                            End Site
                            {
                              OFFSET 0 0 0
                            }
                          }
                        }
                      }
                    }
                  }
                }
                JOINT Bip01_L_Clavicle
                {
                  OFFSET -3.21661 -4.89641 9.04797
                  CHANNELS 6 Xposition Yposition Zposition Zrotation Xrotation Yrotation
                  JOINT Bip01_L_UpperArm
                  {
                    OFFSET 19.0492 0 0
                    CHANNELS 6 Xposition Yposition Zposition Zrotation Xrotation Yrotation
                    JOINT Bip01_L_Forearm
                    {
                      OFFSET 10.3706 0 0
                      CHANNELS 6 Xposition Yposition Zposition Zrotation Xrotation Yrotation
                      JOINT Bip01_L_Hand
                      {
                        OFFSET 22.8631 0 0
                        CHANNELS 6 Xposition Yposition Zposition Zrotation Xrotation Yrotation
                        JOINT Bip01_L_Finger0
                        {
                          OFFSET 6.48257 0.103655 -0.504492
                          CHANNELS 6 Xposition Yposition Zposition Zrotation Xrotation Yrotation
                          JOINT Bip01_L_Finger01
                          {
                            OFFSET 3.66844 0 0
                            CHANNELS 6 Xposition Yposition Zposition Zrotation Xrotation Yrotation
                            End Site
                            {
                              OFFSET 0 0 0
                            }
                          }
                        }
                      }
                    }
                  }
                }
                JOINT Bip01_Neck1
                {
                  OFFSET 7.52459 -0.00656509 0
                  CHANNELS 6 Xposition Yposition Zposition Zrotation Xrotation Yrotation
                  JOINT Bip01_Neck2
                  {
                    OFFSET 8.4783 -0.00588226 0
                    CHANNELS 6 Xposition Yposition Zposition Zrotation Xrotation Yrotation
                    JOINT Bip01_Head
                    {
                      OFFSET 8.41606 0 0
                      CHANNELS 6 Xposition Yposition Zposition Zrotation Xrotation Yrotation
                      JOINT EyesBlue
                      {
                        OFFSET 0 0 0
                        CHANNELS 6 Xposition Yposition Zposition Zrotation Xrotation Yrotation
                        JOINT EyesBlue_2
                        {
                          OFFSET 0 -0.500007 0
                          CHANNELS 6 Xposition Yposition Zposition Zrotation Xrotation Yrotation
                          End Site
                          {
                            OFFSET 0 0 0
                          }
                        }
                      }
                      JOINT Bip01_Head2_Eyeleds
                      {
                        OFFSET 6.52751 7.61746 2.2e-005
                        CHANNELS 6 Xposition Yposition Zposition Zrotation Xrotation Yrotation
                        End Site
                        {
                          OFFSET 0 0 0
                        }
                      }
                      JOINT Bip01_Head_Muzzle
                      {
                        OFFSET 2.88628 13.9448 3.88994
                        CHANNELS 6 Xposition Yposition Zposition Zrotation Xrotation Yrotation
                        End Site
                        {
                          OFFSET 0 0 0
                        }
                      }
                      JOINT Bip01_Head1_Jaw
                      {
                        OFFSET 0.271065 1.32405 0
                        CHANNELS 6 Xposition Yposition Zposition Zrotation Xrotation Yrotation
                        JOINT _Bip01_Head11_TungeControler
                        {
                          OFFSET 4.61616 5.82872 0
                          CHANNELS 6 Xposition Yposition Zposition Zrotation Xrotation Yrotation
                          JOINT _Bip01_Ponytail3_tunge
                          {
                            OFFSET 5.17785 2.98805 0
                            CHANNELS 6 Xposition Yposition Zposition Zrotation Xrotation Yrotation
                            JOINT Bip01_Ponytail31
                            {
                              OFFSET 5.57569 0 0
                              CHANNELS 6 Xposition Yposition Zposition Zrotation Xrotation Yrotation
                              JOINT Bip01_Ponytail32
                              {
                                OFFSET 2.93165 0 0
                                CHANNELS 6 Xposition Yposition Zposition Zrotation Xrotation Yrotation
                                JOINT Bip01_Ponytail3Nub
                                {
                                  OFFSET 3.30155 0 0
                                  CHANNELS 6 Xposition Yposition Zposition Zrotation Xrotation Yrotation
                                  End Site
                                  {
                                    OFFSET 0 0 0
                                  }
                                }
                              }
                            }
                          }
                        }
                        JOINT Bip01_Head_JawNub
                        {
                          OFFSET 15.5776 -0.000389099 0
                          CHANNELS 6 Xposition Yposition Zposition Zrotation Xrotation Yrotation
                          End Site
                          {
                            OFFSET 0 0 0
                          }
                        }
                      }
                      JOINT Bip01_Ponytail2
                      {
                        OFFSET 9.40334 1.03973 -6.51764
                        CHANNELS 6 Xposition Yposition Zposition Zrotation Xrotation Yrotation
                        JOINT Bip01_Ponytail21
                        {
                          OFFSET 2.77018 -0.00640106 1.33514e-005
                          CHANNELS 6 Xposition Yposition Zposition Zrotation Xrotation Yrotation
                          End Site
                          {
                            OFFSET 0 0 0
                          }
                        }
                      }
                      JOINT Bip01_Ponytail1
                      {
                        OFFSET 9.40368 1.03969 6.51768
                        CHANNELS 6 Xposition Yposition Zposition Zrotation Xrotation Yrotation
                        JOINT Bip01_Ponytail11
                        {
                          OFFSET 2.77018 -0.00640487 0
                          CHANNELS 6 Xposition Yposition Zposition Zrotation Xrotation Yrotation
                          End Site
                          {
                            OFFSET 0 0 0
                          }
                        }
                      }
                    }
                  }
                }
              }
            }
          }
        }
      }
    }
  }
}
MOTION
Frames:	4
Frame Time:	0.0333333
2.61008 -0.0729074 5.45247 -0 -90 -0 5.39219 -28.7009 38.8875 82.3532 3.37064 77.0054 0 0 0 -90 -0.000115362 -85.0341 -6.45122 -3.85966 -0.560549 144.968 -2.85484 4.06356 10.3785 -0.006637 2.10001e-005 -35.1642 0.00115644 0.00222972 10.3791 -0.007091 -1.92575e-011 -30.9687 -2.11078e-005 8.10801e-005 10.3777 -0.006076 0.000106 -41.7485 0.000533178 0.0011985 10.3823 -0.008032 5.19995e-005 -7.84384 0.000584211 0.000679444 1.1e-005 -1.1e-005 -8.75617 -122.638 -18.9764 175.138 19.7638 -2e-006 -3e-006 -107.028 -0.000165845 0.00114905 18.6534 -7.10543e-015 -3.55271e-015 20.1803 -10.1725 -27.6423 5.09143 13.9567 -3.34813e-007 104.299 1.02682 -4.65279 4.288 1.77636e-015 0 26.7977 3.76419e-005 -3.42548e-006 3.85799 -2.35367e-014 0 -45 -5.31808e-005 -4.18756e-005 -1.3e-005 1.1e-005 8.75617 -126.381 4.13818 -164.298 19.7638 1e-006 8.88178e-015 -106.618 0.00017787 -0.00121865 18.6534 1e-006 1.42109e-014 32.5475 -7.98721 0.736038 5.09143 13.9567 1.52236e-007 97.6619 -3.1177 1.97935 4.288 -1e-006 -7.81597e-014 18.7658 -5.48264e-007 -1.42621e-006 3.85799 2.38032e-013 -2e-006 -45 -9.59837e-006 -8.87908e-006 9.11413 -0.006263 0.79162 1.18815 1.98902 -8.14742 8.04401 -0.006397 0.000267 2.9741 -2.7931 -11.4122 8.0445 -0.006328 0.00045 7.61702 -4.58543 -7.87515 8.04636 -0.007862 0.000498999 18.8383 -2.71781 -4.09889 10.6692 1.06815 -0.000548876 -7.12074 5.28529 18.7437 -0.765539 -5.33686 -9.33346 -129.81 -64.5046 168.907 19.0492 1e-006 -3.90798e-014 83.7912 -27.1188 -94.1312 10.3706 1.84741e-013 1e-006 -146.525 0.000122937 -0.000217133 22.8631 1e-006 7.10542e-015 2.96837 20.8842 20.446 6.48257 0.103651 0.504498 -30.1646 -11.859 -10.048 3.66843 -4.44089e-014 1e-006 37.715 1.11943e-005 3.32912e-006 -6.55555 -3.67045 7.73001 96.5711 72.0516 -27.8641 19.0492 -2e-006 -1e-006 96.4269 -1.69256 94.0438 10.3706 -1e-006 3.45501e-013 -123.515 0.000899334 -0.00295228 22.8631 -7e-006 -4e-006 5.856 3.25595 -3.57438 6.48257 0.103654 -0.504494 -58.9915 -7.44994 10.2099 3.66843 1e-006 -1e-006 40.107 -5.04711e-006 3.74901e-007 7.52827 -0.006294 2.80044e-005 18.7415 0.143937 0.16108 8.47782 -0.006057 0.000159002 24.3879 -0.46798 -1.09176 8.41605 2.13163e-014 0 -49.2685 3.26177 -18.6979 -1e-006 3e-006 -5e-006 -23.1098 1.37701e-015 90 -1.88055e-006 -0.500002 -3.82047e-006 180 90 -90 0 0 0 -87.049 -1.52588e-005 -180 2.8863 13.9448 3.88993 -22.989 1.37021e-015 90 0 0 0 -52.836 1.08794e-013 -180 0 0 0 -120.289 2.47588e-007 1.47345e-006 0 0 0 133.74 -6.28618e-010 8.00674e-007 0 0 0 1.83152 7.38734e-008 -2.45086e-008 0 0 0 -17.65 -1.30078e-006 2.0999e-007 0 0 0 -26.1943 -6.1111e-006 8.65507e-007 15.5776 -0.000396 -8.00001e-006 -6.36111e-015 -3.18055e-015 -3.18055e-015 9.40486 1.0403 -6.51575 33.2558 -34.1009 78.9454 2.76725 -0.005626 0.001508 -24.8726 -13.2848 7.93092 9.40531 1.04026 6.51577 33.2563 34.1009 -78.9458 2.76601 -0.004787 -0.001607 -38.7061 14.76 -4.55886 
2.95446 -0.0729074 6.17189 -0 -90 -0 5.25919 -28.7009 39.0725 82.5409 3.27975 77.0956 0 0 0 -90 0.0041983 -84.6138 -6.44688 -3.85966 -0.607841 144.94 -3.09944 4.40548 10.3785 -0.006637 2.10001e-005 -36.02 0.00112304 0.00224675 10.3791 -0.007091 -1.67155e-011 -32.2199 -2.28581e-005 8.05723e-005 10.3777 -0.006076 0.000106 -43.3361 0.000497258 0.00121288 10.3823 -0.008032 5.19992e-005 -8.25503 0.000572495 0.000684055 1.1e-005 -1.1e-005 -8.75617 -124.678 -18.5724 176.046 19.7638 -2e-006 -3e-006 -105.963 -0.000169902 0.00114421 18.6534 -7.10543e-015 0 16.8501 -8.45268 -27.6206 5.09143 13.9567 -3.03076e-007 104.864 1.01653 -4.55339 4.288 -8.88178e-015 -5.32907e-015 26.8697 3.7344e-005 -3.54979e-006 3.85799 1.24345e-014 0 -45 -5.29217e-005 -4.1439e-005 -1.3e-005 1.1e-005 8.75617 -124.581 3.91382 -163.657 19.7638 1e-006 2.13163e-014 -106.68 0.000178597 -0.00121863 18.6534 1e-006 8.88178e-015 31.0009 -6.71663 -1.01741 5.09143 13.9567 1.32735e-007 100.066 -2.83983 2.55508 4.288 -1e-006 -5.15143e-014 19.69 -5.35974e-007 -9.99008e-007 3.85799 1.78524e-013 -2e-006 -45 -1.02067e-005 -9.88197e-006 9.10802 -0.006263 0.858553 1.22922 1.93136 -8.50039 8.04401 -0.006397 0.000267 2.87078 -2.73272 -11.2106 8.0445 -0.006328 0.00045 7.48583 -4.60469 -7.73659 8.04636 -0.007862 0.000498999 18.3659 -2.64378 -4.0227 10.6692 1.06815 -0.000548875 -7.51212 5.11643 18.3908 -0.789322 -5.33683 -9.33127 -130.642 -64.4848 168.309 19.0492 1e-006 -3.37508e-014 83.9158 -27.7877 -96.0225 10.3706 1.98952e-013 1e-006 -141.361 0.000110054 -0.000220807 22.8631 1e-006 -7.10542e-015 -3.77516 21.8741 20.6192 6.48257 0.103651 0.504498 -30.0327 -11.8813 -10.0218 3.66843 8.88179e-015 1e-006 37.9548 8.80778e-006 4.84241e-006 -6.4751 -3.72308 7.77124 98.1018 72.4331 -29.2834 19.0492 -2e-006 -1e-006 96.5155 -2.52652 93.1787 10.3706 -1e-006 3.1708e-013 -121.688 0.000804653 -0.00297877 22.8631 -7e-006 -4e-006 5.11788 0.646843 -3.49525 6.48257 0.103654 -0.504494 -58.1249 -6.01094 10.633 3.66843 1e-006 -1e-006 40.107 -2.08949e-006 -1.27601e-006 7.52827 -0.006294 2.80047e-005 16.6219 0.136393 0.161317 8.47782 -0.006057 0.000159002 23.1318 -0.435098 -1.08108 8.41605 -7.10543e-015 1.77636e-015 -39.0515 9.90096 -25.2723 -1e-006 3e-006 -5e-006 -23.1098 1.37701e-015 90 -1.90217e-006 -0.500002 -3.81614e-006 180 90 -90 0 0 0 -86.8669 -1.52588e-005 -180 3.03752 13.9329 3.88993 -22.989 1.37021e-015 90 0 0 0 -55.7959 -1.52588e-005 -180 0 0 0 -120.289 3.85785e-007 3.63065e-006 0 0 0 133.74 -6.41464e-007 1.81086e-006 0 0 0 1.83152 1.54752e-007 -7.58866e-008 0 0 0 -17.65 -2.55916e-006 6.72627e-007 0 0 0 -26.1943 -8.71716e-006 2.0628e-006 15.5776 -0.000396 -8.00003e-006 -3.18055e-015 6.36111e-015 -0 9.40486 1.0403 -6.51575 31.6503 -34.1952 76.702 2.76725 -0.005626 0.001508 -32.3053 -15.4735 5.52169 9.40531 1.04026 6.51577 31.6485 34.1943 -76.7008 2.76936 -0.004787 -0.001607 -4.87299 12.662 -10.2734 
3.29885 -0.0729074 6.89131 -0 -90 -0 4.93743 -28.7009 39.4742 82.977 3.03321 77.8364 0 0 0 -90 0.000646332 -84.1661 -6.44188 -3.85966 -0.658267 144.846 -3.36609 4.76599 10.3785 -0.006637 2.10001e-005 -36.7251 0.00109532 0.00226041 10.3791 -0.007091 -1.59552e-011 -32.9933 -2.39875e-005 8.02425e-005 10.3777 -0.006076 0.000106 -44.3112 0.000474837 0.00122129 10.3823 -0.008032 5.19989e-005 -8.5253 0.000563064 0.000687101 1.1e-005 -1.1e-005 -8.75617 -126.906 -17.9381 176.817 19.7638 -2e-006 -3e-006 -103.949 -0.000128643 0.00114925 18.6534 7.10543e-015 3.55271e-015 13.2496 -7.02148 -26.9572 5.09143 13.9567 -2.81827e-007 105.39 1.03401 -4.42203 4.288 8.88178e-015 1.77636e-015 27.0512 3.48798e-005 -3.55586e-006 3.85799 6.21725e-015 3.55271e-015 -45 -5.11588e-005 -3.95588e-005 -1.3e-005 1.1e-005 8.75617 -123.25 3.92324 -163.296 19.7638 1e-006 7.10543e-015 -106.126 0.000172443 -0.00121873 18.6534 1e-006 1.59872e-014 28.9619 -5.39504 -2.26752 5.09143 13.9567 1.12216e-007 101.499 -2.77393 2.79643 4.288 -1e-006 -3.55271e-014 22.0396 -6.61776e-007 -6.3918e-007 3.85799 1.43885e-013 -2e-006 -45 -1.0677e-005 -1.06506e-005 9.10101 -0.006263 0.929779 1.12274 1.82649 -8.77864 8.04401 -0.006397 0.000267 2.78098 -2.58588 -10.6476 8.0445 -0.006328 0.00045 7.33022 -4.52304 -7.34855 8.04636 -0.007862 0.000498999 17.0802 -2.46063 -3.83613 10.6692 1.06815 -0.000548873 -8.84675 4.45003 16.7638 -0.935405 -5.32103 -9.32652 -132.076 -65.5741 165.935 19.0492 1e-006 -5.32907e-014 85.2361 -28.4805 -97.2564 10.3706 2.34479e-013 1e-006 -135.478 9.60375e-005 -0.000224627 22.8631 1e-006 7.10542e-015 -10.6841 23.3799 20.232 6.48257 0.103651 0.504498 -29.8931 -11.9057 -9.9926 3.66843 8.88179e-014 1e-006 38.2095 4.82173e-006 7.66596e-006 -6.13713 -3.91656 7.94539 102.249 74.0956 -32.335 19.0492 -2e-006 -1e-006 95.9263 -1.46118 92.9017 10.3706 -1e-006 3.25962e-013 -120.396 0.000737603 -0.00299605 22.8631 -7e-006 -4e-006 3.39308 -1.76373 -3.76508 6.48257 0.103654 -0.504494 -57.2882 -4.53644 11.0429 3.66843 1e-006 -1e-006 40.107 -1.34334e-006 -1.19807e-006 7.52827 -0.006294 2.80049e-005 13.4637 0.122668 0.149242 8.47782 -0.006057 0.000159002 20.5538 -0.348991 -1.00081 8.41605 -7.10543e-015 -2.66454e-015 -26.3964 20.9454 -34.4166 -1e-006 3e-006 -5e-006 -23.1098 1.37701e-015 90 -1.94343e-006 -0.500002 -3.79477e-006 180 90 -90 0 0 0 -86.6847 -1.52588e-005 -180 3.18873 13.9209 3.88993 -22.989 1.37021e-015 90 0 0 0 -58.7558 7.01671e-015 -180 0 0 0 -120.289 1.444e-007 4.98802e-006 0 0 0 133.74 -1.02495e-006 2.20927e-006 0 0 0 1.83152 2.35549e-007 -1.00329e-007 0 0 0 -17.65 -3.64903e-006 8.79885e-007 0 0 0 -26.1943 -8.97812e-006 2.83142e-006 15.5776 -0.000396 -8.00004e-006 6.36111e-015 0 -3.18055e-015 9.40486 1.0403 -6.51575 30.2946 -35.6232 74.9785 2.76725 -0.005626 0.001508 -40.1763 -15.7669 4.09234 9.40531 1.04026 6.51577 30.294 35.6228 -74.9783 2.77404 -0.004787 -0.001607 43.586 1.60718 -14.417 
3.64323 -0.0729074 7.61074 -0 -90 -0 4.45605 -28.7009 40.0578 83.6295 2.66617 79.1418 0 0 0 -90 5.94788e-005 -83.7083 -6.43641 -3.85966 -0.709684 144.699 -3.64474 5.13009 10.3785 -0.006637 2.1e-005 -37.273 0.00107366 0.00227079 10.3791 -0.007091 -1.65201e-011 -33.3674 -2.45997e-005 8.00817e-005 10.3777 -0.006076 0.000106 -44.7322 0.000465858 0.00122486 10.3823 -0.008032 5.19989e-005 -8.6829 0.000559752 0.000688734 1.1e-005 -1.1e-005 -8.75617 -129.33 -17.091 177.442 19.7638 -2e-006 -3e-006 -101.115 -0.000124381 0.00114349 18.6534 -7.10543e-015 0 9.12408 -5.87539 -25.7386 5.09143 13.9567 -2.57681e-007 106.107 0.99931 -4.37318 4.288 -5.32907e-015 1.77636e-015 27.3326 3.04564e-005 -3.45279e-006 3.85799 1.13243e-014 -1.77636e-015 -45 -4.80431e-005 -3.63752e-005 -1.3e-005 1.1e-005 8.75617 -122.349 4.12234 -163.164 19.7638 1e-006 1.06581e-014 -104.914 0.000158645 -0.00121899 18.6534 1e-006 1.06581e-014 26.4838 -4.06767 -3.03718 5.09143 13.9567 9.23457e-008 101.891 -2.92507 2.71316 4.288 -1e-006 -1.06581e-014 25.6878 -7.71898e-007 -3.56627e-007 3.85799 1.35891e-013 -2e-006 -45 -1.10032e-005 -1.11649e-005 9.09325 -0.006263 1.00237 0.886163 1.68311 -8.97748 8.04401 -0.006397 0.000267 2.70338 -2.37656 -9.81884 8.0445 -0.006328 0.00045 7.16037 -4.36265 -6.77671 8.04636 -0.007862 0.000498999 15.0865 -2.18973 -3.54671 10.6692 1.06815 -0.000548872 -10.736 3.56441 14.3994 -1.15078 -5.30212 -9.31297 -134.178 -67.2256 162.24 19.0492 1e-006 -4.26326e-014 87.6608 -28.4444 -97.4636 10.3706 3.2685e-013 1e-006 -128.627 8.17584e-005 -0.000229874 22.8631 1e-006 -1.42108e-014 -17.3968 25.4822 19.6472 6.48257 0.103651 0.504498 -29.7474 -11.931 -9.9621 3.66843 1.87406e-013 1e-006 38.4732 -5.35616e-007 1.1638e-005 -5.63957 -4.17615 8.17623 109.124 76.3823 -37.5832 19.0492 -2e-006 -1e-006 94.8912 0.947937 93.1793 10.3706 -1e-006 3.20632e-013 -119.432 0.000687542 -0.00300823 22.8631 -7e-006 -4e-006 0.873375 -3.97345 -4.25733 6.48257 0.103654 -0.504494 -56.4737 -3.03818 11.438 3.66843 1e-006 -1e-006 40.107 -2.42564e-006 2.67297e-007 7.52827 -0.006294 2.80022e-005 9.78696 0.108315 0.130376 8.47782 -0.006057 0.000159002 17.2659 -0.245649 -0.873262 8.41605 -1.42109e-014 -1.77636e-015 -13.4092 32.6356 -42.9227 -1e-006 3e-006 -5e-006 -23.1098 1.37701e-015 90 -1.98045e-006 -0.500002 -3.7655e-006 -7.56522e-006 90 90 0 0 0 -86.5026 -1.52588e-005 -180 3.33995 13.909 3.88993 -22.989 1.37021e-015 90 0 0 0 -61.7157 -1.52588e-005 -180 0 0 0 -120.289 -1.72276e-007 3.92765e-006 0 0 0 133.74 -3.23921e-007 1.533e-006 0 0 0 1.83152 2.42755e-007 -5.72394e-008 0 0 0 -17.65 -3.73983e-006 4.69134e-007 0 0 0 -26.1943 -8.88349e-006 2.30166e-006 15.5776 -0.000396 -8.00003e-006 -3.18055e-015 0 6.36111e-015 9.40486 1.0403 -6.51575 28.9442 -37.3922 73.3428 2.76725 -0.005626 0.001508 -25.1151 -12.8798 7.53772 9.40531 1.04026 6.51577 28.9446 37.3916 -73.3434 2.77598 -0.004787 -0.001607 75.5782 -7.12445 -11.2291 
